<svg width="56" height="56" viewBox="0 0 56 56" fill="none" xmlns="http://www.w3.org/2000/svg">
<g id="group_add">
<mask id="mask0_68_598" style="mask-type:alpha" maskUnits="userSpaceOnUse" x="0" y="0" width="56" height="56">
<rect id="Bounding box" width="56" height="56" fill="url(#paint0_linear_68_598)"/>
</mask>
<g mask="url(#mask0_68_598)">
<path id="group_add_2" d="M29.1667 27.8833C30.2944 26.6389 31.1597 25.2194 31.7625 23.625C32.3653 22.0305 32.6667 20.3778 32.6667 18.6666C32.6667 16.9555 32.3653 15.3028 31.7625 13.7083C31.1597 12.1139 30.2944 10.6944 29.1667 9.44998C31.5 9.76109 33.4444 10.7916 35 12.5416C36.5556 14.2916 37.3333 16.3333 37.3333 18.6666C37.3333 21 36.5556 23.0416 35 24.7916C33.4444 26.5416 31.5 27.5722 29.1667 27.8833ZM42 46.6666V39.6666C42 38.2666 41.6889 36.9347 41.0667 35.6708C40.4444 34.4069 39.6278 33.2889 38.6167 32.3166C40.6 33.0166 42.4375 33.9208 44.1292 35.0291C45.8208 36.1375 46.6667 37.6833 46.6667 39.6666V46.6666H42ZM46.6667 30.3333V25.6666H42V21H46.6667V16.3333H51.3333V21H56V25.6666H51.3333V30.3333H46.6667ZM18.6667 28C16.1 28 13.9028 27.0861 12.075 25.2583C10.2472 23.4305 9.33333 21.2333 9.33333 18.6666C9.33333 16.1 10.2472 13.9028 12.075 12.075C13.9028 10.2472 16.1 9.33331 18.6667 9.33331C21.2333 9.33331 23.4306 10.2472 25.2583 12.075C27.0861 13.9028 28 16.1 28 18.6666C28 21.2333 27.0861 23.4305 25.2583 25.2583C23.4306 27.0861 21.2333 28 18.6667 28ZM0 46.6666V40.1333C0 38.8111 0.340278 37.5958 1.02083 36.4875C1.70139 35.3791 2.60556 34.5333 3.73333 33.95C6.14444 32.7444 8.59444 31.8403 11.0833 31.2375C13.5722 30.6347 16.1 30.3333 18.6667 30.3333C21.2333 30.3333 23.7611 30.6347 26.25 31.2375C28.7389 31.8403 31.1889 32.7444 33.6 33.95C34.7278 34.5333 35.6319 35.3791 36.3125 36.4875C36.9931 37.5958 37.3333 38.8111 37.3333 40.1333V46.6666H0Z" fill="url(#paint1_linear_68_598)"/>
</g>
</g>
<defs>
<linearGradient id="paint0_linear_68_598" x1="7.28" y1="-4.2" x2="57.3322" y2="55.3246" gradientUnits="userSpaceOnUse">
<stop stop-color="#5C5C5C"/>
<stop offset="0.429895" stop-color="#CDCBCB"/>
<stop offset="0.960307" stop-color="#5C5C5C"/>
</linearGradient>
<linearGradient id="paint1_linear_68_598" x1="7.28" y1="6.53331" x2="36.1742" y2="58.077" gradientUnits="userSpaceOnUse">
<stop stop-color="#5C5C5C"/>
<stop offset="0.429895" stop-color="#CDCBCB"/>
<stop offset="0.960307" stop-color="#5C5C5C"/>
</linearGradient>
</defs>
</svg>
