<svg width="56" height="56" viewBox="0 0 56 56" fill="none" xmlns="http://www.w3.org/2000/svg">
<g id="Frame" clip-path="url(#clip0_1028_15)">
<g id="Vector">
<path d="M16.3333 23.3333H23.3333V16.3333L15.1667 8.16665C17.7791 6.91896 20.7142 6.51187 23.5676 7.00144C26.421 7.49101 29.0525 8.85316 31.0996 10.9003C33.1468 12.9475 34.509 15.579 34.9985 18.4324C35.4881 21.2858 35.081 24.2208 33.8333 26.8333L47.8333 40.8333C48.7616 41.7616 49.2831 43.0206 49.2831 44.3333C49.2831 45.6461 48.7616 46.9051 47.8333 47.8333C46.9051 48.7616 45.6461 49.2831 44.3333 49.2831C43.0206 49.2831 41.7616 48.7616 40.8333 47.8333L26.8333 33.8333C24.2208 35.081 21.2858 35.4881 18.4324 34.9985C15.579 34.509 12.9475 33.1468 10.9003 31.0996C8.85316 29.0525 7.49101 26.421 7.00144 23.5676C6.51187 20.7142 6.91896 17.7791 8.16665 15.1667L16.3333 23.3333Z" fill="#2C3E50"/>
<path d="M16.3333 23.3333H23.3333V16.3333L15.1667 8.16665C17.7791 6.91896 20.7142 6.51187 23.5676 7.00144C26.421 7.49101 29.0525 8.85316 31.0996 10.9003C33.1468 12.9475 34.509 15.579 34.9985 18.4324C35.4881 21.2858 35.081 24.2208 33.8333 26.8333L47.8333 40.8333C48.7616 41.7616 49.2831 43.0206 49.2831 44.3333C49.2831 45.6461 48.7616 46.9051 47.8333 47.8333C46.9051 48.7616 45.6461 49.2831 44.3333 49.2831C43.0206 49.2831 41.7616 48.7616 40.8333 47.8333L26.8333 33.8333C24.2208 35.081 21.2858 35.4881 18.4324 34.9985C15.579 34.509 12.9475 33.1468 10.9003 31.0996C8.85316 29.0525 7.49101 26.421 7.00144 23.5676C6.51187 20.7142 6.91896 17.7791 8.16665 15.1667L16.3333 23.3333Z" fill="url(#paint0_linear_1028_15)"/>
<path d="M16.3333 23.3333H23.3333V16.3333L15.1667 8.16665C17.7791 6.91896 20.7142 6.51187 23.5676 7.00144C26.421 7.49101 29.0525 8.85316 31.0996 10.9003C33.1468 12.9475 34.509 15.579 34.9985 18.4324C35.4881 21.2858 35.081 24.2208 33.8333 26.8333L47.8333 40.8333C48.7616 41.7616 49.2831 43.0206 49.2831 44.3333C49.2831 45.6461 48.7616 46.9051 47.8333 47.8333C46.9051 48.7616 45.6461 49.2831 44.3333 49.2831C43.0206 49.2831 41.7616 48.7616 40.8333 47.8333L26.8333 33.8333C24.2208 35.081 21.2858 35.4881 18.4324 34.9985C15.579 34.509 12.9475 33.1468 10.9003 31.0996C8.85316 29.0525 7.49101 26.421 7.00144 23.5676C6.51187 20.7142 6.91896 17.7791 8.16665 15.1667L16.3333 23.3333Z" stroke="url(#paint1_linear_1028_15)" stroke-width="2.75" stroke-linecap="round" stroke-linejoin="round"/>
</g>
</g>
<defs>
<linearGradient id="paint0_linear_1028_15" x1="12.3226" y1="3.61356" x2="46.3092" y2="52.6817" gradientUnits="userSpaceOnUse">
<stop stop-color="#7E7E7E"/>
<stop offset="0.429895" stop-color="#CDCBCB"/>
<stop offset="0.960307" stop-color="#7A7A7A"/>
</linearGradient>
<linearGradient id="paint1_linear_1028_15" x1="12.3226" y1="3.61356" x2="46.3092" y2="52.6817" gradientUnits="userSpaceOnUse">
<stop stop-color="#7E7E7E"/>
<stop offset="0.429895" stop-color="#CDCBCB"/>
<stop offset="0.960307" stop-color="#7A7A7A"/>
</linearGradient>
<clipPath id="clip0_1028_15">
<rect width="56" height="56" fill="white"/>
</clipPath>
</defs>
</svg>
