<svg width="56" height="56" viewBox="0 0 56 56" fill="none" xmlns="http://www.w3.org/2000/svg">
<g id="readiness_score">
<mask id="mask0_68_626" style="mask-type:alpha" maskUnits="userSpaceOnUse" x="0" y="0" width="56" height="56">
<g id="Bounding box">
<rect width="56" height="56" fill="#1C1B1F"/>
<rect width="56" height="56" fill="url(#paint0_linear_68_626)"/>
</g>
</mask>
<g mask="url(#mask0_68_626)">
<g id="readiness_score_2">
<path d="M17.2084 49.0583C15.8084 49.0194 14.4765 48.6597 13.2126 47.9792C11.9487 47.2986 10.7529 46.2972 9.62508 44.975C8.06953 43.1083 6.85425 40.8819 5.97925 38.2958C5.10425 35.7097 4.66675 33.0556 4.66675 30.3333C4.66675 27.1056 5.27925 24.0722 6.50425 21.2333C7.72925 18.3944 9.39175 15.925 11.4917 13.825C13.5917 11.725 16.0612 10.0625 18.9001 8.8375C21.739 7.6125 24.7723 7 28.0001 7C31.2279 7 34.2612 7.62222 37.1001 8.86667C39.939 10.1111 42.4084 11.8028 44.5084 13.9417C46.6084 16.0806 48.2709 18.5889 49.4959 21.4667C50.7209 24.3444 51.3334 27.4361 51.3334 30.7417C51.3334 33.7361 50.8473 36.5361 49.8751 39.1417C48.9029 41.7472 47.5223 43.9444 45.7334 45.7333C44.6445 46.8222 43.4973 47.6486 42.2918 48.2125C41.0862 48.7764 39.8612 49.0583 38.6168 49.0583C37.9168 49.0583 37.2168 48.9708 36.5168 48.7958C35.8168 48.6208 35.1168 48.3583 34.4167 48.0083L31.1501 46.375C30.6834 46.1417 30.1876 45.9667 29.6626 45.85C29.1376 45.7333 28.5834 45.675 28.0001 45.675C27.4167 45.675 26.8626 45.7333 26.3376 45.85C25.8126 45.9667 25.3168 46.1417 24.8501 46.375L21.5834 48.0083C20.8445 48.3972 20.1154 48.6792 19.3959 48.8542C18.6765 49.0292 17.9473 49.0972 17.2084 49.0583ZM17.3251 44.3917C17.6751 44.3917 18.0348 44.3528 18.4042 44.275C18.7737 44.1972 19.1334 44.0611 19.4834 43.8667L22.7501 42.2333C23.5667 41.8056 24.4126 41.4944 25.2876 41.3C26.1626 41.1056 27.0473 41.0083 27.9417 41.0083C28.8362 41.0083 29.7306 41.1056 30.6251 41.3C31.5195 41.4944 32.3751 41.8056 33.1918 42.2333L36.5168 43.8667C36.8668 44.0611 37.2168 44.1972 37.5667 44.275C37.9168 44.3528 38.2668 44.3917 38.6168 44.3917C39.3556 44.3917 40.0556 44.1972 40.7168 43.8083C41.3779 43.4194 42.039 42.8361 42.7001 42.0583C43.9445 40.5806 44.9168 38.8111 45.6168 36.75C46.3168 34.6889 46.6668 32.5694 46.6668 30.3917C46.6668 25.1806 44.8584 20.7569 41.2418 17.1208C37.6251 13.4847 33.2112 11.6667 28.0001 11.6667C22.789 11.6667 18.3751 13.4944 14.7584 17.15C11.1417 20.8056 9.33342 25.2389 9.33342 30.45C9.33342 32.6667 9.69314 34.825 10.4126 36.925C11.132 39.025 12.1334 40.7944 13.4167 42.2333C14.0779 43.0111 14.7195 43.5653 15.3417 43.8958C15.964 44.2264 16.6251 44.3917 17.3251 44.3917ZM26.7167 32.2583C27.2612 32.5694 27.8348 32.6861 28.4376 32.6083C29.0404 32.5306 29.5168 32.2389 29.8668 31.7333L35.2334 24.5583C35.6223 25.0639 35.9626 25.5986 36.2543 26.1625C36.5459 26.7264 36.789 27.3389 36.9834 28H41.7668C41.1834 24.5778 39.5987 21.7778 37.0126 19.6C34.4265 17.4222 31.4223 16.3333 28.0001 16.3333C24.5779 16.3333 21.564 17.4319 18.9584 19.6292C16.3529 21.8264 14.7779 24.6167 14.2334 28H19.0167C19.5612 25.9 20.6695 24.2083 22.3417 22.925C24.014 21.6417 25.9001 21 28.0001 21C28.6612 21 29.2834 21.0583 29.8668 21.175C30.4501 21.2917 31.014 21.4667 31.5584 21.7L26.1334 28.9333C25.7056 29.4778 25.5501 30.0806 25.6667 30.7417C25.7834 31.4028 26.1334 31.9083 26.7167 32.2583ZM17.3251 44.3917C16.6251 44.3917 15.964 44.2264 15.3417 43.8958C14.7195 43.5653 14.0779 43.0111 13.4167 42.2333C12.1334 40.7944 11.132 39.025 10.4126 36.925C9.69314 34.825 9.33342 32.6667 9.33342 30.45C9.33342 25.2389 11.1417 20.8056 14.7584 17.15C18.3751 13.4944 22.789 11.6667 28.0001 11.6667C33.2112 11.6667 37.6251 13.4847 41.2418 17.1208C44.8584 20.7569 46.6668 25.1806 46.6668 30.3917C46.6668 32.5694 46.3168 34.6889 45.6168 36.75C44.9168 38.8111 43.9445 40.5806 42.7001 42.0583C42.039 42.8361 41.3779 43.4194 40.7168 43.8083C40.0556 44.1972 39.3556 44.3917 38.6168 44.3917C38.2668 44.3917 37.9168 44.3528 37.5667 44.275C37.2168 44.1972 36.8668 44.0611 36.5168 43.8667L33.1918 42.2333C32.3751 41.8056 31.5195 41.4944 30.6251 41.3C29.7306 41.1056 28.8362 41.0083 27.9417 41.0083C27.0473 41.0083 26.1626 41.1056 25.2876 41.3C24.4126 41.4944 23.5667 41.8056 22.7501 42.2333L19.4834 43.8667C19.1334 44.0611 18.7737 44.1972 18.4042 44.275C18.0348 44.3528 17.6751 44.3917 17.3251 44.3917Z" fill="#1C1B1F"/>
<path d="M17.2084 49.0583C15.8084 49.0194 14.4765 48.6597 13.2126 47.9792C11.9487 47.2986 10.7529 46.2972 9.62508 44.975C8.06953 43.1083 6.85425 40.8819 5.97925 38.2958C5.10425 35.7097 4.66675 33.0556 4.66675 30.3333C4.66675 27.1056 5.27925 24.0722 6.50425 21.2333C7.72925 18.3944 9.39175 15.925 11.4917 13.825C13.5917 11.725 16.0612 10.0625 18.9001 8.8375C21.739 7.6125 24.7723 7 28.0001 7C31.2279 7 34.2612 7.62222 37.1001 8.86667C39.939 10.1111 42.4084 11.8028 44.5084 13.9417C46.6084 16.0806 48.2709 18.5889 49.4959 21.4667C50.7209 24.3444 51.3334 27.4361 51.3334 30.7417C51.3334 33.7361 50.8473 36.5361 49.8751 39.1417C48.9029 41.7472 47.5223 43.9444 45.7334 45.7333C44.6445 46.8222 43.4973 47.6486 42.2918 48.2125C41.0862 48.7764 39.8612 49.0583 38.6168 49.0583C37.9168 49.0583 37.2168 48.9708 36.5168 48.7958C35.8168 48.6208 35.1168 48.3583 34.4167 48.0083L31.1501 46.375C30.6834 46.1417 30.1876 45.9667 29.6626 45.85C29.1376 45.7333 28.5834 45.675 28.0001 45.675C27.4167 45.675 26.8626 45.7333 26.3376 45.85C25.8126 45.9667 25.3168 46.1417 24.8501 46.375L21.5834 48.0083C20.8445 48.3972 20.1154 48.6792 19.3959 48.8542C18.6765 49.0292 17.9473 49.0972 17.2084 49.0583ZM17.3251 44.3917C17.6751 44.3917 18.0348 44.3528 18.4042 44.275C18.7737 44.1972 19.1334 44.0611 19.4834 43.8667L22.7501 42.2333C23.5667 41.8056 24.4126 41.4944 25.2876 41.3C26.1626 41.1056 27.0473 41.0083 27.9417 41.0083C28.8362 41.0083 29.7306 41.1056 30.6251 41.3C31.5195 41.4944 32.3751 41.8056 33.1918 42.2333L36.5168 43.8667C36.8668 44.0611 37.2168 44.1972 37.5667 44.275C37.9168 44.3528 38.2668 44.3917 38.6168 44.3917C39.3556 44.3917 40.0556 44.1972 40.7168 43.8083C41.3779 43.4194 42.039 42.8361 42.7001 42.0583C43.9445 40.5806 44.9168 38.8111 45.6168 36.75C46.3168 34.6889 46.6668 32.5694 46.6668 30.3917C46.6668 25.1806 44.8584 20.7569 41.2418 17.1208C37.6251 13.4847 33.2112 11.6667 28.0001 11.6667C22.789 11.6667 18.3751 13.4944 14.7584 17.15C11.1417 20.8056 9.33342 25.2389 9.33342 30.45C9.33342 32.6667 9.69314 34.825 10.4126 36.925C11.132 39.025 12.1334 40.7944 13.4167 42.2333C14.0779 43.0111 14.7195 43.5653 15.3417 43.8958C15.964 44.2264 16.6251 44.3917 17.3251 44.3917ZM26.7167 32.2583C27.2612 32.5694 27.8348 32.6861 28.4376 32.6083C29.0404 32.5306 29.5168 32.2389 29.8668 31.7333L35.2334 24.5583C35.6223 25.0639 35.9626 25.5986 36.2543 26.1625C36.5459 26.7264 36.789 27.3389 36.9834 28H41.7668C41.1834 24.5778 39.5987 21.7778 37.0126 19.6C34.4265 17.4222 31.4223 16.3333 28.0001 16.3333C24.5779 16.3333 21.564 17.4319 18.9584 19.6292C16.3529 21.8264 14.7779 24.6167 14.2334 28H19.0167C19.5612 25.9 20.6695 24.2083 22.3417 22.925C24.014 21.6417 25.9001 21 28.0001 21C28.6612 21 29.2834 21.0583 29.8668 21.175C30.4501 21.2917 31.014 21.4667 31.5584 21.7L26.1334 28.9333C25.7056 29.4778 25.5501 30.0806 25.6667 30.7417C25.7834 31.4028 26.1334 31.9083 26.7167 32.2583ZM17.3251 44.3917C16.6251 44.3917 15.964 44.2264 15.3417 43.8958C14.7195 43.5653 14.0779 43.0111 13.4167 42.2333C12.1334 40.7944 11.132 39.025 10.4126 36.925C9.69314 34.825 9.33342 32.6667 9.33342 30.45C9.33342 25.2389 11.1417 20.8056 14.7584 17.15C18.3751 13.4944 22.789 11.6667 28.0001 11.6667C33.2112 11.6667 37.6251 13.4847 41.2418 17.1208C44.8584 20.7569 46.6668 25.1806 46.6668 30.3917C46.6668 32.5694 46.3168 34.6889 45.6168 36.75C44.9168 38.8111 43.9445 40.5806 42.7001 42.0583C42.039 42.8361 41.3779 43.4194 40.7168 43.8083C40.0556 44.1972 39.3556 44.3917 38.6168 44.3917C38.2668 44.3917 37.9168 44.3528 37.5667 44.275C37.2168 44.1972 36.8668 44.0611 36.5168 43.8667L33.1918 42.2333C32.3751 41.8056 31.5195 41.4944 30.6251 41.3C29.7306 41.1056 28.8362 41.0083 27.9417 41.0083C27.0473 41.0083 26.1626 41.1056 25.2876 41.3C24.4126 41.4944 23.5667 41.8056 22.7501 42.2333L19.4834 43.8667C19.1334 44.0611 18.7737 44.1972 18.4042 44.275C18.0348 44.3528 17.6751 44.3917 17.3251 44.3917Z" fill="url(#paint1_linear_68_626)"/>
</g>
</g>
</g>
<defs>
<linearGradient id="paint0_linear_68_626" x1="7.28" y1="-4.2" x2="57.3322" y2="55.3246" gradientUnits="userSpaceOnUse">
<stop stop-color="#5C5C5C"/>
<stop offset="0.429895" stop-color="#CDCBCB"/>
<stop offset="0.960307" stop-color="#5C5C5C"/>
</linearGradient>
<linearGradient id="paint1_linear_68_626" x1="10.7334" y1="3.84483" x2="47.4811" y2="52.3232" gradientUnits="userSpaceOnUse">
<stop stop-color="#5C5C5C"/>
<stop offset="0.429895" stop-color="#CDCBCB"/>
<stop offset="0.960307" stop-color="#5C5C5C"/>
</linearGradient>
</defs>
</svg>
