<svg width="56" height="56" viewBox="0 0 56 56" fill="none" xmlns="http://www.w3.org/2000/svg">
<g id="scale">
<mask id="mask0_68_580" style="mask-type:alpha" maskUnits="userSpaceOnUse" x="0" y="0" width="56" height="56">
<g id="Bounding box">
<rect width="56" height="56" fill="#1C1B1F"/>
<rect width="56" height="56" fill="url(#paint0_linear_68_580)"/>
</g>
</mask>
<g mask="url(#mask0_68_580)">
<g id="scale_2">
<path d="M4.66663 51.3334C4.66663 47.0167 5.24024 43.332 6.38746 40.2792C7.53468 37.2264 9.00274 34.6889 10.7916 32.6667C12.5805 30.6445 14.5833 29.0792 16.8 27.9709C19.0166 26.8625 21.1944 26.0945 23.3333 25.6667V18.6667C18.0055 18.0056 13.5625 16.3625 10.0041 13.7375C6.44579 11.1125 4.66663 8.08891 4.66663 4.66669H51.3333C51.3333 8.08891 49.5541 11.1125 45.9958 13.7375C42.4375 16.3625 37.9944 18.0056 32.6666 18.6667V25.6667C34.8055 26.0945 36.9833 26.8625 39.2 27.9709C41.4166 29.0792 43.4194 30.6445 45.2083 32.6667C46.9972 34.6889 48.4652 37.2264 49.6125 40.2792C50.7597 43.332 51.3333 47.0167 51.3333 51.3334H37.3333V46.6667H46.375C45.675 40.7556 43.468 36.4778 39.7541 33.8334C36.0402 31.1889 32.1222 29.8667 28 29.8667C23.8777 29.8667 19.9597 31.1889 16.2458 33.8334C12.5319 36.4778 10.325 40.7556 9.62496 46.6667H18.6666V51.3334H4.66663ZM28 51.3334C26.7166 51.3334 25.618 50.8764 24.7041 49.9625C23.7902 49.0486 23.3333 47.95 23.3333 46.6667C23.3333 46.0056 23.4597 45.4028 23.7125 44.8584C23.9652 44.3139 24.3055 43.8278 24.7333 43.4C25.6666 42.4667 27.2416 41.4847 29.4583 40.4542C31.675 39.4236 34.3 38.3834 37.3333 37.3334C36.2444 40.3667 35.1944 42.9917 34.1833 45.2084C33.1722 47.425 32.2 49 31.2666 49.9334C30.8389 50.3611 30.3527 50.7014 29.8083 50.9542C29.2639 51.207 28.6611 51.3334 28 51.3334Z" fill="#1C1B1F"/>
<path d="M4.66663 51.3334C4.66663 47.0167 5.24024 43.332 6.38746 40.2792C7.53468 37.2264 9.00274 34.6889 10.7916 32.6667C12.5805 30.6445 14.5833 29.0792 16.8 27.9709C19.0166 26.8625 21.1944 26.0945 23.3333 25.6667V18.6667C18.0055 18.0056 13.5625 16.3625 10.0041 13.7375C6.44579 11.1125 4.66663 8.08891 4.66663 4.66669H51.3333C51.3333 8.08891 49.5541 11.1125 45.9958 13.7375C42.4375 16.3625 37.9944 18.0056 32.6666 18.6667V25.6667C34.8055 26.0945 36.9833 26.8625 39.2 27.9709C41.4166 29.0792 43.4194 30.6445 45.2083 32.6667C46.9972 34.6889 48.4652 37.2264 49.6125 40.2792C50.7597 43.332 51.3333 47.0167 51.3333 51.3334H37.3333V46.6667H46.375C45.675 40.7556 43.468 36.4778 39.7541 33.8334C36.0402 31.1889 32.1222 29.8667 28 29.8667C23.8777 29.8667 19.9597 31.1889 16.2458 33.8334C12.5319 36.4778 10.325 40.7556 9.62496 46.6667H18.6666V51.3334H4.66663ZM28 51.3334C26.7166 51.3334 25.618 50.8764 24.7041 49.9625C23.7902 49.0486 23.3333 47.95 23.3333 46.6667C23.3333 46.0056 23.4597 45.4028 23.7125 44.8584C23.9652 44.3139 24.3055 43.8278 24.7333 43.4C25.6666 42.4667 27.2416 41.4847 29.4583 40.4542C31.675 39.4236 34.3 38.3834 37.3333 37.3334C36.2444 40.3667 35.1944 42.9917 34.1833 45.2084C33.1722 47.425 32.2 49 31.2666 49.9334C30.8389 50.3611 30.3527 50.7014 29.8083 50.9542C29.2639 51.207 28.6611 51.3334 28 51.3334Z" fill="url(#paint1_linear_68_580)"/>
</g>
</g>
</g>
<defs>
<linearGradient id="paint0_linear_68_580" x1="7.28" y1="-4.2" x2="57.3322" y2="55.3246" gradientUnits="userSpaceOnUse">
<stop stop-color="#5C5C5C"/>
<stop offset="0.429895" stop-color="#CDCBCB"/>
<stop offset="0.960307" stop-color="#5C5C5C"/>
</linearGradient>
<linearGradient id="paint1_linear_68_580" x1="10.7333" y1="1.16669" x2="52.4434" y2="50.7705" gradientUnits="userSpaceOnUse">
<stop stop-color="#5C5C5C"/>
<stop offset="0.429895" stop-color="#CDCBCB"/>
<stop offset="0.960307" stop-color="#5C5C5C"/>
</linearGradient>
</defs>
</svg>
