<svg width="56" height="56" viewBox="0 0 56 56" fill="none" xmlns="http://www.w3.org/2000/svg">
<path d="M43.2601 9.61332L30.4268 4.80665C29.0968 4.31665 26.9268 4.31665 25.5968 4.80665L12.7634 9.61332C10.2901 10.5466 8.28345 13.44 8.28345 16.0766V34.9766C8.28345 36.8666 9.52011 39.3633 11.0368 40.4833L23.8701 50.0733C26.1334 51.7766 29.8434 51.7766 32.1068 50.0733L44.9401 40.4833C46.4568 39.34 47.6934 36.8666 47.6934 34.9766V16.0766C47.7168 13.44 45.7101 10.5466 43.2601 9.61332ZM36.1201 22.68L26.0868 32.7133C25.7368 33.0633 25.2934 33.2266 24.8501 33.2266C24.4068 33.2266 23.9634 33.0633 23.6134 32.7133L19.8801 28.9333C19.2034 28.2566 19.2034 27.1367 19.8801 26.46C20.5568 25.7833 21.6768 25.7833 22.3534 26.46L24.8734 28.98L33.6701 20.1833C34.3468 19.5066 35.4668 19.5066 36.1434 20.1833C36.8201 20.86 36.8201 22.0033 36.1201 22.68Z" fill="url(#paint0_linear_68_635)"/>
<defs>
<linearGradient id="paint0_linear_68_635" x1="2.5" y1="4" x2="44" y2="51" gradientUnits="userSpaceOnUse">
<stop stop-color="#777777"/>
<stop offset="0.54915" stop-color="#CAC9C9"/>
<stop offset="0.98565" stop-color="#777777"/>
</linearGradient>
</defs>
</svg>
